# xmcd CD database file
#
# Track frame offsets:
#	150
#	13755
#	26568
#	45569
#	78989
#	101385
#	115760
#	131349
#	157017
#	172010
#	202047
#	223063
#
# Disc length: 3202 seconds
#
# Revision: 0
# Processed by: cddbd v1.5.2PL0 Copyright (c) Steve Scherf et al.
# Submitted via: CDex 1.70beta2
#
DISCID=9d0c800c
DTITLE=Various Jazz Player - Jazz Ballad Best
DYEAR=1953
DGENRE=Jazz
TTITLE0=Mysty - Sarah Vaughan
TTITLE1=It Never Entered My Mind - Nancy Wilson
TTITLE2=Body And Soul - Benny Carter
TTITLE3=You've Changed - Dexter Gordon
TTITLE4=My One And Only You - John Coltrane and Johnny Hartman
TTITLE5=That Old Feeling - Dinah Shore
TTITLE6=Stardust - Clifford Brown
TTITLE7=The Nearness Of You - Ella Fitzgerald and Louis Armstrong
TTITLE8=I Fall In Love Too Easily - Chet Baker
TTITLE9=In A Sentimental Mood - Tommy Flanagan
TTITLE10=Someone To Watch Over You - Herbie Hangcock 
TTITLE11=When I Fall In Love - Carmen McRae
EXTD=YEAR: 1953
EXTT0=
EXTT1=
EXTT2=
EXTT3=
EXTT4=
EXTT5=
EXTT6=
EXTT7=
EXTT8=
EXTT9=
EXTT10=
EXTT11=
PLAYORDER=
